<?xml version="1.0" standalone="no"?>
<!DOCTYPE svg PUBLIC "-//W3C//DTD SVG 20010904//EN"
 "http://www.w3.org/TR/2001/REC-SVG-20010904/DTD/svg10.dtd">
<svg version="1.0" xmlns="http://www.w3.org/2000/svg"
 width="700.000000pt" height="700.000000pt" viewBox="0 0 700.000000 700.000000"
 preserveAspectRatio="xMidYMid meet">
<metadata>
Created by potrace 1.14, written by Peter Selinger 2001-2017
</metadata>
<g transform="translate(0.000000,700.000000) scale(0.100000,-0.100000)"
fill="#000000" stroke="none">
<path d="M0 3500 l0 -3500 3500 0 3500 0 0 3500 0 3500 -3500 0 -3500 0 0
-3500z m5305 1309 c185 -28 525 -139 525 -172 0 -9 -156 -411 -166 -429 -2 -3
-44 11 -93 32 -214 93 -355 130 -489 130 -376 -1 -604 -270 -642 -757 -24
-293 29 -577 137 -740 171 -258 510 -310 1011 -157 64 20 125 39 135 41 16 5
17 -10 17 -225 l0 -230 -107 -35 c-412 -136 -912 -120 -1202 39 -284 156 -461
432 -533 833 -26 144 -31 507 -9 636 92 552 392 903 866 1016 160 38 367 44
550 18z m-2140 -1205 c232 -655 437 -1236 457 -1292 l36 -102 -296 2 -296 3
-91 300 -92 300 -473 0 -474 0 -91 -300 -91 -300 -297 -3 -296 -2 23 62 c13
35 218 618 456 1296 l434 1232 335 -2 336 -3 420 -1191z"/>
<path d="M2366 4237 c-22 -78 -95 -323 -163 -544 -67 -222 -123 -405 -123
-408 0 -3 151 -5 336 -5 265 0 335 3 331 13 -6 16 -152 487 -237 762 -37 121
-73 244 -81 273 -7 28 -15 52 -18 52 -3 0 -24 -64 -45 -143z"/>
</g>
</svg>
